<mxfile host="Electron" agent="Mozilla/5.0 (Windows NT 10.0; Win64; x64) AppleWebKit/537.36 (KHTML, like Gecko) draw.io/24.7.17 Chrome/128.0.6613.36 Electron/32.0.1 Safari/537.36" version="24.7.17">
  <diagram id="C5RBs43oDa-KdzZeNtuy" name="Page-1">
    <mxGraphModel dx="529" dy="276" grid="1" gridSize="10" guides="1" tooltips="1" connect="1" arrows="1" fold="1" page="1" pageScale="1" pageWidth="827" pageHeight="1169" math="0" shadow="0">
      <root>
        <mxCell id="WIyWlLk6GJQsqaUBKTNV-0" />
        <mxCell id="WIyWlLk6GJQsqaUBKTNV-1" parent="WIyWlLk6GJQsqaUBKTNV-0" />
        <mxCell id="viBs-TrZWTLYpcwUNtEv-47" style="edgeStyle=orthogonalEdgeStyle;rounded=0;orthogonalLoop=1;jettySize=auto;html=1;exitX=0.56;exitY=0.938;exitDx=0;exitDy=0;exitPerimeter=0;" parent="WIyWlLk6GJQsqaUBKTNV-1" source="WIyWlLk6GJQsqaUBKTNV-3" edge="1">
          <mxGeometry relative="1" as="geometry">
            <mxPoint x="160" y="160" as="targetPoint" />
            <Array as="points">
              <mxPoint x="227" y="160" />
            </Array>
          </mxGeometry>
        </mxCell>
        <mxCell id="WIyWlLk6GJQsqaUBKTNV-3" value="Assistant" style="rounded=1;whiteSpace=wrap;html=1;fontSize=12;glass=0;strokeWidth=1;shadow=0;" parent="WIyWlLk6GJQsqaUBKTNV-1" vertex="1">
          <mxGeometry x="160" y="80" width="120" height="40" as="geometry" />
        </mxCell>
        <mxCell id="WIyWlLk6GJQsqaUBKTNV-6" value="" style="rhombus;whiteSpace=wrap;html=1;shadow=0;fontFamily=Helvetica;fontSize=12;align=center;strokeWidth=1;spacing=6;spacingTop=-4;" parent="WIyWlLk6GJQsqaUBKTNV-1" vertex="1">
          <mxGeometry x="460" y="310" width="100" height="80" as="geometry" />
        </mxCell>
        <mxCell id="WIyWlLk6GJQsqaUBKTNV-11" value="" style="rounded=1;whiteSpace=wrap;html=1;fontSize=12;glass=0;strokeWidth=1;shadow=0;" parent="WIyWlLk6GJQsqaUBKTNV-1" vertex="1">
          <mxGeometry x="280" y="550" width="120" height="40" as="geometry" />
        </mxCell>
        <mxCell id="viBs-TrZWTLYpcwUNtEv-46" style="edgeStyle=orthogonalEdgeStyle;rounded=0;orthogonalLoop=1;jettySize=auto;html=1;" parent="WIyWlLk6GJQsqaUBKTNV-1" edge="1">
          <mxGeometry relative="1" as="geometry">
            <mxPoint x="220" y="160" as="targetPoint" />
            <mxPoint x="350.0000000000002" y="120" as="sourcePoint" />
            <Array as="points">
              <mxPoint x="350" y="160" />
            </Array>
          </mxGeometry>
        </mxCell>
        <mxCell id="viBs-TrZWTLYpcwUNtEv-0" value="Search" style="rounded=1;whiteSpace=wrap;html=1;fontSize=12;glass=0;strokeWidth=1;shadow=0;" parent="WIyWlLk6GJQsqaUBKTNV-1" vertex="1">
          <mxGeometry x="300" y="80" width="120" height="40" as="geometry" />
        </mxCell>
        <mxCell id="viBs-TrZWTLYpcwUNtEv-1" value="Web notifications" style="rhombus;whiteSpace=wrap;html=1;shadow=0;fontFamily=Helvetica;fontSize=12;align=center;strokeWidth=1;spacing=6;spacingTop=-4;" parent="WIyWlLk6GJQsqaUBKTNV-1" vertex="1">
          <mxGeometry x="480" y="60" width="100" height="80" as="geometry" />
        </mxCell>
        <mxCell id="viBs-TrZWTLYpcwUNtEv-2" value="Personal stuff" style="rounded=1;whiteSpace=wrap;html=1;fontSize=12;glass=0;strokeWidth=1;shadow=0;" parent="WIyWlLk6GJQsqaUBKTNV-1" vertex="1">
          <mxGeometry x="650" y="80" width="120" height="40" as="geometry" />
        </mxCell>
        <mxCell id="viBs-TrZWTLYpcwUNtEv-62" value="Vector db" style="rounded=1;whiteSpace=wrap;html=1;" parent="WIyWlLk6GJQsqaUBKTNV-1" vertex="1">
          <mxGeometry x="20" y="550" width="210" height="40" as="geometry" />
        </mxCell>
        <mxCell id="viBs-TrZWTLYpcwUNtEv-63" value="Search db" style="rounded=1;whiteSpace=wrap;html=1;" parent="WIyWlLk6GJQsqaUBKTNV-1" vertex="1">
          <mxGeometry x="440" y="550" width="160" height="40" as="geometry" />
        </mxCell>
        <mxCell id="viBs-TrZWTLYpcwUNtEv-64" value="Re&lt;span style=&quot;background-color: initial;&quot;&gt;lational db&lt;/span&gt;" style="rounded=1;whiteSpace=wrap;html=1;" parent="WIyWlLk6GJQsqaUBKTNV-1" vertex="1">
          <mxGeometry x="620" y="550" width="200" height="40" as="geometry" />
        </mxCell>
        <mxCell id="viBs-TrZWTLYpcwUNtEv-48" value="" style="endArrow=classic;html=1;rounded=0;entryX=0.556;entryY=0;entryDx=0;entryDy=0;entryPerimeter=0;" parent="WIyWlLk6GJQsqaUBKTNV-1" target="viBs-TrZWTLYpcwUNtEv-43" edge="1">
          <mxGeometry width="50" height="50" relative="1" as="geometry">
            <mxPoint x="160" y="160" as="sourcePoint" />
            <mxPoint x="150" y="160" as="targetPoint" />
          </mxGeometry>
        </mxCell>
        <mxCell id="viBs-TrZWTLYpcwUNtEv-43" value="&lt;font style=&quot;font-size: 10px;&quot;&gt;ORCHESTRATOR&lt;/font&gt;" style="ellipse;whiteSpace=wrap;html=1;aspect=fixed;" parent="WIyWlLk6GJQsqaUBKTNV-1" vertex="1">
          <mxGeometry x="110" y="260" width="90" height="90" as="geometry" />
        </mxCell>
        <mxCell id="viBs-TrZWTLYpcwUNtEv-54" style="edgeStyle=orthogonalEdgeStyle;rounded=0;orthogonalLoop=1;jettySize=auto;html=1;entryX=0.5;entryY=0;entryDx=0;entryDy=0;exitX=0;exitY=1;exitDx=0;exitDy=0;" parent="WIyWlLk6GJQsqaUBKTNV-1" source="viBs-TrZWTLYpcwUNtEv-43" target="viBs-TrZWTLYpcwUNtEv-18" edge="1">
          <mxGeometry relative="1" as="geometry">
            <mxPoint x="130.00001321178684" y="305.0344827586207" as="sourcePoint" />
            <Array as="points">
              <mxPoint x="110" y="337" />
            </Array>
          </mxGeometry>
        </mxCell>
        <mxCell id="viBs-TrZWTLYpcwUNtEv-60" style="edgeStyle=orthogonalEdgeStyle;rounded=0;orthogonalLoop=1;jettySize=auto;html=1;entryX=0.5;entryY=0;entryDx=0;entryDy=0;exitX=1;exitY=0.5;exitDx=0;exitDy=0;" parent="WIyWlLk6GJQsqaUBKTNV-1" source="viBs-TrZWTLYpcwUNtEv-43" target="viBs-TrZWTLYpcwUNtEv-19" edge="1">
          <mxGeometry relative="1" as="geometry">
            <mxPoint x="390" y="304.9999999999999" as="targetPoint" />
            <mxPoint x="219.99998678821305" y="305.0344827586207" as="sourcePoint" />
          </mxGeometry>
        </mxCell>
        <mxCell id="viBs-TrZWTLYpcwUNtEv-57" style="edgeStyle=orthogonalEdgeStyle;rounded=0;orthogonalLoop=1;jettySize=auto;html=1;entryX=0.5;entryY=0;entryDx=0;entryDy=0;exitX=1;exitY=0.5;exitDx=0;exitDy=0;" parent="WIyWlLk6GJQsqaUBKTNV-1" source="viBs-TrZWTLYpcwUNtEv-43" target="viBs-TrZWTLYpcwUNtEv-20" edge="1">
          <mxGeometry relative="1" as="geometry">
            <mxPoint x="240" y="304.9999999999999" as="targetPoint" />
            <mxPoint x="220.00000000000045" y="304.9999999999999" as="sourcePoint" />
          </mxGeometry>
        </mxCell>
        <mxCell id="viBs-TrZWTLYpcwUNtEv-52" value="" style="edgeStyle=orthogonalEdgeStyle;rounded=0;orthogonalLoop=1;jettySize=auto;html=1;exitX=1;exitY=1;exitDx=0;exitDy=0;" parent="WIyWlLk6GJQsqaUBKTNV-1" source="viBs-TrZWTLYpcwUNtEv-43" target="viBs-TrZWTLYpcwUNtEv-22" edge="1">
          <mxGeometry relative="1" as="geometry">
            <mxPoint x="175" y="349.9999999999999" as="sourcePoint" />
            <Array as="points">
              <mxPoint x="187" y="340" />
              <mxPoint x="187" y="340" />
            </Array>
          </mxGeometry>
        </mxCell>
        <mxCell id="viBs-TrZWTLYpcwUNtEv-18" value="&lt;font style=&quot;font-size: 10px;&quot;&gt;Knowledge &amp;amp; Learning&lt;/font&gt;" style="ellipse;whiteSpace=wrap;html=1;aspect=fixed;" parent="WIyWlLk6GJQsqaUBKTNV-1" vertex="1">
          <mxGeometry x="85" y="440" width="60" height="60" as="geometry" />
        </mxCell>
        <mxCell id="viBs-TrZWTLYpcwUNtEv-19" value="&lt;font style=&quot;font-size: 10px;&quot;&gt;Planner / agenda&lt;/font&gt;" style="ellipse;whiteSpace=wrap;html=1;aspect=fixed;" parent="WIyWlLk6GJQsqaUBKTNV-1" vertex="1">
          <mxGeometry x="365" y="440" width="60" height="60" as="geometry" />
        </mxCell>
        <mxCell id="viBs-TrZWTLYpcwUNtEv-20" value="&lt;font style=&quot;font-size: 10px;&quot;&gt;Fun &amp;amp; travel&lt;/font&gt;" style="ellipse;whiteSpace=wrap;html=1;aspect=fixed;" parent="WIyWlLk6GJQsqaUBKTNV-1" vertex="1">
          <mxGeometry x="225" y="440" width="60" height="60" as="geometry" />
        </mxCell>
        <mxCell id="viBs-TrZWTLYpcwUNtEv-21" value="&lt;font style=&quot;font-size: 10px;&quot;&gt;Social&lt;/font&gt;" style="ellipse;whiteSpace=wrap;html=1;aspect=fixed;" parent="WIyWlLk6GJQsqaUBKTNV-1" vertex="1">
          <mxGeometry x="295" y="440" width="60" height="60" as="geometry" />
        </mxCell>
        <mxCell id="viBs-TrZWTLYpcwUNtEv-22" value="&lt;font style=&quot;font-size: 10px;&quot;&gt;Financial &amp;amp; inv.&lt;/font&gt;" style="ellipse;whiteSpace=wrap;html=1;aspect=fixed;" parent="WIyWlLk6GJQsqaUBKTNV-1" vertex="1">
          <mxGeometry x="155" y="440" width="60" height="60" as="geometry" />
        </mxCell>
        <mxCell id="viBs-TrZWTLYpcwUNtEv-23" value="&lt;span style=&quot;font-size: 10px;&quot;&gt;Welbeing / Nutrition/ Sport&lt;/span&gt;" style="ellipse;whiteSpace=wrap;html=1;aspect=fixed;" parent="WIyWlLk6GJQsqaUBKTNV-1" vertex="1">
          <mxGeometry x="15" y="440" width="60" height="60" as="geometry" />
        </mxCell>
        <mxCell id="viBs-TrZWTLYpcwUNtEv-58" style="edgeStyle=orthogonalEdgeStyle;rounded=0;orthogonalLoop=1;jettySize=auto;html=1;entryX=0.5;entryY=0;entryDx=0;entryDy=0;" parent="WIyWlLk6GJQsqaUBKTNV-1" target="viBs-TrZWTLYpcwUNtEv-21" edge="1">
          <mxGeometry relative="1" as="geometry">
            <mxPoint x="320" y="379" as="targetPoint" />
            <mxPoint x="200" y="305" as="sourcePoint" />
            <Array as="points">
              <mxPoint x="320" y="305" />
            </Array>
          </mxGeometry>
        </mxCell>
        <mxCell id="viBs-TrZWTLYpcwUNtEv-61" style="edgeStyle=orthogonalEdgeStyle;rounded=0;orthogonalLoop=1;jettySize=auto;html=1;entryX=0.383;entryY=-0.013;entryDx=0;entryDy=0;entryPerimeter=0;" parent="WIyWlLk6GJQsqaUBKTNV-1" source="viBs-TrZWTLYpcwUNtEv-43" edge="1" target="viBs-TrZWTLYpcwUNtEv-23">
          <mxGeometry relative="1" as="geometry">
            <mxPoint x="40.00000000000023" y="379.9999999999999" as="targetPoint" />
          </mxGeometry>
        </mxCell>
        <mxCell id="M-Y-t_xztOI_OHX5z8tQ-0" value="Intent, enities" style="shape=callout;whiteSpace=wrap;html=1;perimeter=calloutPerimeter;" vertex="1" parent="WIyWlLk6GJQsqaUBKTNV-1">
          <mxGeometry x="340" y="190" width="65" height="70" as="geometry" />
        </mxCell>
      </root>
    </mxGraphModel>
  </diagram>
</mxfile>
